HIERARCHY
ROOT ui
{
	 OFFSET 0 0 0
	 CHANNELS 3 XPosition YPosition Z Position
	 EndSite
	 {
	 OFFSET 0 -1 0
	 }
}
ROOT li
{
	 OFFSET 0 0 0
	 CHANNELS 3 XPosition YPosition Z Position
	 EndSite
	 {
	 OFFSET 0 -1 0
	 }
}
ROOT ul
{
	 OFFSET 0 0 0
	 CHANNELS 3 XPosition YPosition Z Position
	 EndSite
	 {
	 OFFSET 0 -1 0
	 }
}
ROOT ll
{
	 OFFSET 0 0 0
	 CHANNELS 3 XPosition YPosition Z Position
	 EndSite
	 {
	 OFFSET 0 -1 0
	 }
}
ROOT tt
{
	 OFFSET 0 0 0
	 CHANNELS 3 XPosition YPosition Z Position
	 EndSite
	 {
	 OFFSET 0 -1 0
	 }
}
ROOT tb
{
	 OFFSET 0 0 0
	 CHANNELS 3 XPosition YPosition Z Position
	 EndSite
	 {
	 OFFSET 0 -1 0
	 }
}
ROOT td
{
	 OFFSET 0 0 0
	 CHANNELS 3 XPosition YPosition Z Position
	 EndSite
	 {
	 OFFSET 0 -1 0
	 }
}
ROOT v
{
	 OFFSET 0 0 0
	 CHANNELS 3 XPosition YPosition Z Position
	 EndSite
	 {
	 OFFSET 0 -1 0
	 }
}
ROOT bn
{
	 OFFSET 0 0 0
	 CHANNELS 3 XPosition YPosition Z Position
	 EndSite
	 {
	 OFFSET 0 -1 0
	 }
}
MOTION
Frames: 18
Frame Time: 0.002
3.374069929122925E-4	-6.414669752120972E-4	0		0.45489617919921876	-2.311797119140625	0		-1.05352490234375	0.1038108901977539	0		-0.7344207153320312	-2.48427978515625	0		1.3617471923828126	-0.775401611328125	0		3.0572705078125	-0.2115455780029297	0		4.61213818359375	-0.019529603958129884	0		5.59185693359375	0.11493637847900391	0		-0.03855883026123047	6.0018720703125	0		
0.0046281847953796385	-0.005703789234161377	0		0.45715756225585935	-2.30963330078125	0		-1.1040965576171875	0.10663276672363281	0		-0.7464147338867188	-2.496209716796875	0		1.293625244140625	-0.7653237915039063	0		3.02989453125	-0.20380888366699218	0		4.609505859375	-0.019816492080688478	0		5.59488037109375	0.10085270690917969	0		-0.04027958297729492	6.00088623046875	0		
0.014277207374572753	0.004108873844146729	0		0.46252593994140623	-2.302552978515625	0		-1.030749267578125	0.10363114166259765	0		-0.7138320922851562	-2.483148681640625	0		1.3373447265625	-0.7638340454101562	0		3.087396484375	-0.20304165649414063	0		4.624068359375	-0.012545105934143066	0		5.6004443359375	0.1280562286376953	0		-0.15916392517089845	5.99052197265625	0		
0.006574188232421875	-0.002704071044921875	0		0.48557290649414064	-2.30988330078125	0		-1.0431070556640625	0.1135816650390625	0		-0.7284727172851563	-2.47902587890625	0		1.3081429443359376	-0.758727783203125	0		3.04490283203125	-0.202071533203125	0		4.617724609375	-0.0018704969882965088	0		5.59075927734375	0.1247994613647461	0		-0.04541966247558594	6.000921875	0		
0.006059717178344726	-0.0026901450157165527	0		0.4577877197265625	-2.309107666015625	0		-1.051808837890625	0.10644322967529297	0		-0.7051514892578125	-2.476745361328125	0		1.3226868896484374	-0.7666318969726562	0		3.05531689453125	-0.20734480285644533	0		4.60992724609375	-0.013256319046020508	0		5.5863076171875	0.14531039428710937	0		-0.18024172973632813	5.9828076171875	0		
-0.002372772932052612	-5.18772006034851E-4	0		0.4579932861328125	-2.308974365234375	0		-1.1272796630859374	0.1087452163696289	0		-0.7418660888671875	-2.4751591796875	0		1.29837646484375	-0.7687246704101562	0		3.0488798828125	-0.2073128204345703	0		4.60945263671875	-0.011893470764160157	0		5.583041015625	0.13615113830566405	0		-0.06528184509277343	5.99122802734375	0		
0.005144824028015136	-0.002705749988555908	0		0.45819635009765625	-2.30886376953125	0		-1.0328544921875	0.10239581298828125	0		-0.7168777465820313	-2.487910888671875	0		1.3073836669921874	-0.7575745849609375	0		3.05451904296875	-0.20561048889160155	0		4.61214453125	-0.004695053100585937	0		5.59326025390625	0.11571199798583984	0		-0.18363427734375	5.9806630859375	0		
0.004749672889709473	-0.0027349228858947754	0		0.46150177001953124	-2.30383984375	0		-1.1190267333984374	0.1149028091430664	0		-0.758305908203125	-2.47224755859375	0		1.30718359375	-0.7572670288085938	0		3.0433046875	-0.19862152099609376	0		4.61589599609375	0.0033812150955200193	0		5.5854658203125	0.1531026611328125	0		-0.05510070419311523	6.00184814453125	0		
-4.966529905796051E-4	0.00232545804977417	0		0.47775927734375	-2.30110595703125	0		-1.0454427490234375	0.112054931640625	0		-0.7272191162109375	-2.480114501953125	0		1.326987548828125	-0.7584133911132812	0		3.06282958984375	-0.2063515167236328	0		4.61139892578125	-0.0024746639728546144	0		5.58524169921875	0.1552886199951172	0		-0.18831559753417967	5.98251708984375	0		
0.004091848850250244	-0.0028317410945892336	0		0.45879660034179687	-2.308664306640625	0		-1.0457745361328126	0.11177015686035156	0		-0.7368155517578125	-2.472125732421875	0		1.3217039794921874	-0.7650733642578125	0		3.057712646484375	-0.198633544921875	0		4.611091796875	-0.0015181870460510255	0		5.58209228515625	0.14530381774902343	0		-0.05851099395751953	6.00172314453125	0		
7.697769999504089E-4	-0.005835020065307618	0		0.48288961791992185	-2.314125732421875	0		-1.058280517578125	0.1007416229248047	0		-0.7308285522460938	-2.48445849609375	0		1.3215948486328124	-0.7648746337890625	0		3.05338916015625	-0.2030050048828125	0		4.60770849609375	-0.006598972797393799	0		5.581927734375	0.14708189392089843	0		-0.05997415161132812	6.0016455078125	0		
-0.0012848600149154663	0.0021296029090881346	0		0.4343026123046875	-2.3031259765625	0		-1.1084656982421874	0.10348405456542968	0		-0.7244765625	-2.478787109375	0		1.3125377197265624	-0.7635283203125	0		3.038231689453125	-0.20122427368164061	0		4.61061279296875	9.893299639225006E-5	0		5.59230322265625	0.12565554046630859	0		-0.19173544311523438	5.9801875	0		
0.010579014778137207	0.0038086249828338625	0		0.46453643798828126	-2.301736572265625	0		-1.034690673828125	0.10074365234375	0		-0.7113709106445313	-2.48524365234375	0		1.2945916748046875	-0.7580367431640626	0		3.069224609375	-0.19443389892578125	0		4.597421875	2.6151999831199645E-5	0		5.58873388671875	0.1393334503173828	0		-0.19289791870117187	5.97907666015625	0		
-0.0015894969701766967	0.0019650340080261232	0		0.46163800048828124	-2.306693115234375	0		-1.0466346435546876	0.11074742126464844	0		-0.733861572265625	-2.4709755859375	0		1.3265836181640625	-0.7575704345703125	0		3.057064697265625	-0.19683758544921875	0		4.61030810546875	0.0013447099924087525	0		5.58456298828125	0.16324154663085938	0		-0.22894075012207032	5.97666064453125	0		
-0.0016796300411224365	0.0018791049718856812	0		0.47691668701171874	-2.30301708984375	0		-1.0508167724609374	0.10660868835449219	0		-0.7356771240234375	-2.473114501953125	0		1.2973980712890625	-0.7669135131835938	0		3.0420224609375	-0.19523968505859374	0		4.61021826171875	0.001843703031539917	0		5.58451220703125	0.1642930908203125	0		-0.06426809692382812	6.00128369140625	0		
0.0031693730354309083	-0.003304524898529053	0		0.43101345825195314	-2.30814599609375	0		-1.0549384765625	0.10348407745361328	0		-0.7276502685546875	-2.483438232421875	0		1.318408447265625	-0.7682667846679687	0		3.056969970703125	-0.19628024291992188	0		4.60704931640625	-0.003667342901229858	0		5.5785869140625	0.1412573547363281	0		-0.07920362091064453	5.990466796875	0		
-0.0017477920055389404	0.0017067819833755493	0		0.4622576599121094	-2.306795166015625	0		-1.1207958984375	0.11258196258544922	0		-0.7962720947265625	-2.475249267578125	0		1.279592529296875	-0.7614622192382813	0		3.05287646484375	-0.20098602294921875	0		4.61014990234375	0.002640608072280884	0		5.57735498046875	0.16632159423828125	0		-0.06559707641601563	6.00109765625	0		
-0.0017310620546340941	0.0016226409673690797	0		0.43757568359375	-2.30135400390625	0		-1.0350189208984375	0.09973117828369141	0		-0.7210750732421874	-2.477860107421875	0		1.3267635498046875	-0.7573504638671875	0		3.057007080078125	-0.1958850860595703	0		4.61016650390625	0.002954756021499634	0		5.5886474609375	0.1491569061279297	0		-0.19750144958496094	5.9815595703125	0		
